<svg width="231" height="174" viewBox="0 0 231 174" fill="none" xmlns="http://www.w3.org/2000/svg">
<rect width="231" height="174" fill="#FF797B"/>
<path d="M57.3333 113V63H72.4444C75.9259 63 78.8704 63.5185 81.2778 64.5556C83.7222 65.5926 85.6852 66.963 87.1667 68.6667C88.6481 70.3333 89.7222 72.1667 90.3889 74.1667C91.0926 76.1296 91.4444 78.0741 91.4444 80C91.4444 81.8889 91.1111 83.8333 90.4444 85.8333C89.7778 87.7963 88.6852 89.6296 87.1667 91.3333C85.6852 93 83.7407 94.3519 81.3333 95.3889C78.9259 96.4259 75.963 96.9444 72.4444 96.9444H67V113H57.3333ZM67 88.2778H71.8889C74.2593 88.2778 76.1296 87.8704 77.5 87.0556C78.9074 86.2037 79.9074 85.1481 80.5 83.8889C81.1296 82.6296 81.4444 81.3333 81.4444 80C81.4444 78.7037 81.1481 77.4259 80.5556 76.1667C79.963 74.8704 78.963 73.7963 77.5556 72.9444C76.1852 72.0926 74.2963 71.6667 71.8889 71.6667H67V88.2778ZM98.4271 113V63H115.427C119.427 63 123.057 63.6481 126.316 64.9444C129.612 66.2407 132.446 68.037 134.816 70.3333C137.223 72.5926 139.075 75.2407 140.372 78.2778C141.668 81.3148 142.316 84.5556 142.316 88C142.316 91.4444 141.668 94.6852 140.372 97.7222C139.075 100.759 137.223 103.426 134.816 105.722C132.446 107.981 129.612 109.759 126.316 111.056C123.057 112.352 119.427 113 115.427 113H98.4271ZM108.094 104H114.538C117.353 104 119.834 103.593 121.983 102.778C124.131 101.926 125.927 100.778 127.372 99.3333C128.853 97.8519 129.964 96.1481 130.705 94.2222C131.483 92.2963 131.872 90.2222 131.872 88C131.872 85.7778 131.483 83.7037 130.705 81.7778C129.964 79.8148 128.853 78.1111 127.372 76.6667C125.927 75.1852 124.131 74.037 121.983 73.2222C119.834 72.4074 117.353 72 114.538 72H108.094V104ZM150.615 113V63H177.281V71.3333H160.281V79.3333H175.615V87.6667H160.281V113H150.615Z" fill="#DA4C4E"/>
</svg>
