<svg width="180" height="135" viewBox="0 0 180 135" fill="none" xmlns="http://www.w3.org/2000/svg">
<rect width="179.224" height="135" fill="#41A5EE"/>
<path d="M77.9085 77.4586C78.0255 78.3796 78.1035 79.1803 78.1392 79.8669H78.2756C78.3276 79.216 78.4359 78.4317 78.6005 77.514C78.7651 76.5962 78.9135 75.8205 79.0456 75.1871L85.3093 48.1165H93.4087L99.9063 74.7802C100.284 76.4382 100.554 78.1188 100.715 79.8116H100.823C100.944 78.1716 101.169 76.5411 101.498 74.9299L106.68 48.1035H114.052L104.949 86.8966H96.3359L90.1631 61.2059C89.9845 60.4671 89.7798 59.5005 89.5556 58.3126C89.3314 57.1247 89.1917 56.2558 89.1365 55.7091H89.0293C88.9578 56.3404 88.8181 57.2777 88.6101 58.5209C88.4022 59.7641 88.2354 60.684 88.1098 61.2807L82.3073 86.89H73.5485L64.3966 48.1164H71.9014L77.5446 75.2423C77.6714 75.7988 77.7916 76.5408 77.9085 77.4586Z" fill="#185ABD"/>
</svg>
