<svg width="231" height="174" viewBox="0 0 231 174" fill="none" xmlns="http://www.w3.org/2000/svg">
<rect width="231" height="174" fill="#FF8F6B"/>
<path d="M99.3333 113V63H114.444C117.926 63 120.87 63.5185 123.278 64.5556C125.722 65.5926 127.685 66.963 129.167 68.6667C130.648 70.3333 131.722 72.1667 132.389 74.1667C133.093 76.1296 133.444 78.0741 133.444 80C133.444 81.8889 133.111 83.8333 132.444 85.8333C131.778 87.7963 130.685 89.6296 129.167 91.3333C127.685 93 125.741 94.3519 123.333 95.3889C120.926 96.4259 117.963 96.9444 114.444 96.9444H109V113H99.3333ZM109 88.2778H113.889C116.259 88.2778 118.13 87.8704 119.5 87.0556C120.907 86.2037 121.907 85.1481 122.5 83.8889C123.13 82.6296 123.444 81.3333 123.444 80C123.444 78.7037 123.148 77.4259 122.556 76.1667C121.963 74.8704 120.963 73.7963 119.556 72.9444C118.185 72.0926 116.296 71.6667 113.889 71.6667H109V88.2778Z" fill="#D35230"/>
</svg>
