<svg width="231" height="174" viewBox="0 0 231 174" fill="none" xmlns="http://www.w3.org/2000/svg">
<rect width="231" height="174" fill="#859AA9"/>
<path d="M110.188 96.5625C109.646 96.5625 109.26 96.3646 109.031 95.9688C108.719 95.4062 108.562 94.3542 108.562 92.8125C108.562 91 108.896 89.5417 109.562 88.4375C110.25 87.3125 111.417 86.2083 113.062 85.125C114.188 84.375 115.104 83.7396 115.812 83.2188C116.542 82.6979 117.073 82.1354 117.406 81.5312C117.74 80.9062 117.906 80.1042 117.906 79.125C117.906 77.6875 117.448 76.5833 116.531 75.8125C115.635 75.0208 114.365 74.625 112.719 74.625C111.344 74.625 110.052 74.8438 108.844 75.2812C107.656 75.6979 106.677 76.1354 105.906 76.5938C105.635 76.7604 105.354 76.8021 105.062 76.7188C104.771 76.6354 104.562 76.4375 104.438 76.125L102.031 70.4688C101.823 69.9896 101.938 69.6146 102.375 69.3438C103.354 68.7396 104.781 68.1042 106.656 67.4375C108.552 66.7708 111.021 66.4375 114.062 66.4375C116.646 66.4375 118.969 66.8229 121.031 67.5938C123.115 68.3646 124.76 69.5833 125.969 71.25C127.177 72.9167 127.781 75.0833 127.781 77.75C127.781 79.6875 127.542 81.2917 127.062 82.5625C126.583 83.8333 125.844 84.9688 124.844 85.9688C123.865 86.9479 122.615 87.9792 121.094 89.0625C119.281 90.3542 118.094 91.3229 117.531 91.9688C116.969 92.6146 116.688 93.2396 116.688 93.8438C116.688 94.2812 116.729 94.625 116.812 94.875C116.896 95.1042 116.938 95.3646 116.938 95.6562C116.938 96.2604 116.573 96.5625 115.844 96.5625H110.188ZM106.625 106.594C106.625 106.323 106.708 106.083 106.875 105.875C107.062 105.646 107.302 105.354 107.594 105C108.219 104.292 108.938 103.552 109.75 102.781C110.562 101.99 111.396 101.229 112.25 100.5C112.771 100.083 113.156 99.875 113.406 99.875C113.656 99.875 114.062 100.083 114.625 100.5C116.375 102.021 117.906 103.521 119.219 105C119.49 105.354 119.719 105.646 119.906 105.875C120.094 106.083 120.188 106.323 120.188 106.594C120.188 106.885 120.083 107.146 119.875 107.375C119.688 107.604 119.458 107.906 119.188 108.281C118.583 108.969 117.875 109.698 117.062 110.469C116.271 111.219 115.458 111.958 114.625 112.688C114.104 113.125 113.698 113.344 113.406 113.344C113.177 113.344 112.771 113.125 112.188 112.688C111.292 111.958 110.458 111.208 109.688 110.438C108.917 109.667 108.219 108.917 107.594 108.188C107.302 107.833 107.062 107.552 106.875 107.344C106.708 107.135 106.625 106.885 106.625 106.594Z" fill="#506371"/>
</svg>
