<svg width="231" height="174" viewBox="0 0 231 174" fill="none" xmlns="http://www.w3.org/2000/svg">
<rect width="231" height="174" fill="#9BB8FF"/>
<g clip-path="url(#clip0_982_31)">
<path d="M143.54 69.112C143.54 74.1783 138.953 78.2853 133.295 78.2853C127.637 78.2853 123.05 74.1783 123.05 69.112C123.05 64.0457 127.637 59.9387 133.295 59.9387C138.953 59.9387 143.54 64.0457 143.54 69.112Z" fill="#B0C7FF"/>
<path d="M65.1643 130H154.426L123.05 99.0741L101.025 77.3654C99.3894 75.7532 96.7352 75.8463 95.2165 77.5691L49 130H65.1643Z" fill="#2E4886"/>
<path d="M154.426 130H161.213H183L136.474 88.8246C134.75 87.2987 132.096 87.5398 130.675 89.3515L123.05 99.0741L154.426 130Z" fill="#3F5CA0"/>
</g>
<rect x="71" y="42" width="90" height="90" rx="45" stroke="#2E4886" stroke-width="6"/>
<defs>
<clipPath id="clip0_982_31">
<rect x="68" y="39" width="96" height="96" rx="48" fill="white"/>
</clipPath>
</defs>
</svg>
