<svg width="406" height="234" viewBox="0 0 406 234" fill="none" xmlns="http://www.w3.org/2000/svg">
<path fill-rule="evenodd" clip-rule="evenodd" d="M314.308 175.282H405.962C408.278 89.947 302.737 97.3273 305.513 175.282C305.513 252.125 395.879 248.969 405.5 192.346H396.705C391.151 232.94 329.122 241.704 315.698 192.346C314.041 185.869 313.808 182.108 314.308 175.282ZM314.308 167.901C318.012 104.246 397.631 109.32 397.631 167.901H314.308Z" fill="white"/>
<path d="M272.185 0L314.309 101.479L265.705 223.715L225.432 123.159H216.174L261.076 233.402H270.334L363.839 0L354.581 0L324.493 76.1094L292.09 0L272.185 0Z" fill="white"/>
<path d="M206.453 123.159V233.402H198.121V123.159H206.453Z" fill="white"/>
<path fill-rule="evenodd" clip-rule="evenodd" d="M112.022 233.402V191.427H141.647L179.605 233.402H190.715L152.294 191.427C200.436 191.427 199.047 123.159 152.294 123.159H103.366V233.402H112.022ZM112.022 183.124V131H152.294C188.863 131 187.012 183.124 152.294 183.124H112.022Z" fill="white"/>
<path fill-rule="evenodd" clip-rule="evenodd" d="M0 123.159V233.402H40.2722C112.022 233.402 110.17 123.159 40.2722 123.159H0ZM9.25789 224.638V131H40.2722C99.0605 131 99.9863 224.638 40.2722 224.638H9.25789Z" fill="white"/>
<path fill-rule="evenodd" clip-rule="evenodd" d="M0 0V110.024H49.0674C116.651 106.553 111.096 0 49.0674 0H0ZM20.3675 89.9475V19.8347H44.4383C88.4138 19.8347 86.5622 89.9475 44.4383 89.9475H20.3675Z" fill="white"/>
<path d="M104.152 110.024H124.983V0H104.152V110.024Z" fill="white"/>
<path d="M131.001 0H150.442L187.474 85.3348L209.231 29.5213L218.952 52.1234L198.121 110.024H176.365L131.001 0Z" fill="white"/>
<path d="M201.824 0L247.189 110.024H269.408L289.775 52.1234L280.517 29.5213L258.298 85.3348L221.729 0L201.824 0Z" fill="white"/>
</svg>
