<svg width="99" height="29" viewBox="0 0 99 29" fill="none" xmlns="http://www.w3.org/2000/svg">
<path d="M4.91627 13.5358H5.91627V12.5358C5.91627 11.0734 6.39458 9.65532 7.27157 8.50681C8.14827 7.35869 9.37206 6.5467 10.746 6.19482C12.1196 5.84301 13.569 5.97002 14.8653 6.55688C16.162 7.14392 17.2341 8.15902 17.9074 9.44539L18.3446 10.2807L19.2041 9.89341C19.645 9.69478 20.1255 9.60637 20.6057 9.63489C21.0859 9.6634 21.5533 9.80809 21.9691 10.0579C22.3849 10.3078 22.7376 10.656 22.9964 11.0747C23.2553 11.4934 23.4126 11.97 23.4541 12.4648L23.531 13.3812H24.4506C26.3107 13.3812 28 15.1002 28 17.4571C28 18.6271 27.5709 19.7946 26.8848 20.6574C26.1976 21.5217 25.3251 22 24.4506 22H4.91627C2.81111 22 1 20.1648 1 17.7679C1 15.371 2.81111 13.5358 4.91627 13.5358Z" stroke="black" stroke-width="2"/>
<path d="M32.5852 23V9.90909H35.6705V23H32.5852ZM34.1364 8.05114C33.6477 8.05114 33.2273 7.8892 32.875 7.56534C32.5227 7.23579 32.3466 6.84091 32.3466 6.38068C32.3466 5.91477 32.5227 5.51989 32.875 5.19602C33.2273 4.86648 33.6477 4.7017 34.1364 4.7017C34.6307 4.7017 35.0511 4.86648 35.3977 5.19602C35.75 5.51989 35.9261 5.91477 35.9261 6.38068C35.9261 6.84091 35.75 7.23579 35.3977 7.56534C35.0511 7.8892 34.6307 8.05114 34.1364 8.05114ZM44.8942 23H38.9794V5.54545H45.0135C46.7464 5.54545 48.2351 5.89489 49.4794 6.59375C50.7294 7.28693 51.6896 8.28409 52.3601 9.58523C53.0305 10.8864 53.3658 12.4432 53.3658 14.2557C53.3658 16.0739 53.0277 17.6364 52.3516 18.9432C51.6811 20.25 50.7124 21.2528 49.4453 21.9517C48.1839 22.6506 46.6669 23 44.8942 23ZM42.1413 20.2642H44.7408C45.9567 20.2642 46.9709 20.0426 47.7834 19.5994C48.5959 19.1506 49.2067 18.483 49.6158 17.5966C50.0249 16.7045 50.2294 15.5909 50.2294 14.2557C50.2294 12.9205 50.0249 11.8125 49.6158 10.9318C49.2067 10.0455 48.6016 9.38352 47.8004 8.94602C47.005 8.50284 46.0163 8.28125 44.8345 8.28125H42.1413V20.2642ZM56.2337 23V9.90909H59.2251V12.0909H59.3615C59.6001 11.3352 60.0092 10.7528 60.5888 10.3438C61.174 9.92898 61.8416 9.72159 62.5916 9.72159C62.7621 9.72159 62.9524 9.73011 63.1626 9.74716C63.3786 9.75852 63.5575 9.77841 63.6996 9.80682V12.6449C63.5689 12.5994 63.3615 12.5597 63.0774 12.5256C62.799 12.4858 62.5291 12.4659 62.2678 12.4659C61.7053 12.4659 61.1996 12.5881 60.7507 12.8324C60.3075 13.071 59.9581 13.4034 59.7024 13.8295C59.4467 14.2557 59.3189 14.7472 59.3189 15.304V23H56.2337ZM65.7493 23V9.90909H68.8345V23H65.7493ZM67.3004 8.05114C66.8118 8.05114 66.3913 7.8892 66.0391 7.56534C65.6868 7.23579 65.5107 6.84091 65.5107 6.38068C65.5107 5.91477 65.6868 5.51989 66.0391 5.19602C66.3913 4.86648 66.8118 4.7017 67.3004 4.7017C67.7947 4.7017 68.2152 4.86648 68.5618 5.19602C68.9141 5.51989 69.0902 5.91477 69.0902 6.38068C69.0902 6.84091 68.9141 7.23579 68.5618 7.56534C68.2152 7.8892 67.7947 8.05114 67.3004 8.05114ZM83.7003 9.90909L79.0384 23H75.6293L70.9673 9.90909H74.2571L77.2656 19.6335H77.402L80.419 9.90909H83.7003ZM91.1854 23.2557C89.8729 23.2557 88.7393 22.983 87.7848 22.4375C86.8359 21.8864 86.1058 21.108 85.5945 20.1023C85.0831 19.0909 84.8274 17.9006 84.8274 16.5312C84.8274 15.1847 85.0831 14.0028 85.5945 12.9858C86.1115 11.9631 86.8331 11.1676 87.7592 10.5994C88.6854 10.0256 89.7734 9.73864 91.0234 9.73864C91.8303 9.73864 92.5916 9.86932 93.3075 10.1307C94.0291 10.3864 94.6655 10.7841 95.2166 11.3239C95.7734 11.8636 96.2109 12.5511 96.5291 13.3864C96.8473 14.2159 97.0064 15.2045 97.0064 16.3523V17.2983H86.2763V15.2188H94.049C94.0433 14.6278 93.9155 14.1023 93.6655 13.642C93.4155 13.1761 93.0661 12.8097 92.6172 12.5426C92.174 12.2756 91.657 12.142 91.0661 12.142C90.4354 12.142 89.8814 12.2955 89.4041 12.6023C88.9268 12.9034 88.5547 13.3011 88.2876 13.7955C88.0263 14.2841 87.8928 14.821 87.8871 15.4062V17.2216C87.8871 17.983 88.0263 18.6364 88.3047 19.1818C88.5831 19.7216 88.9723 20.1364 89.4723 20.4261C89.9723 20.7102 90.5575 20.8523 91.228 20.8523C91.6768 20.8523 92.0831 20.7898 92.4467 20.6648C92.8104 20.5341 93.1257 20.3438 93.3928 20.0938C93.6598 19.8438 93.8615 19.5341 93.9979 19.1648L96.8786 19.4886C96.6967 20.25 96.3501 20.9148 95.8388 21.483C95.3331 22.0455 94.6854 22.483 93.8956 22.7955C93.1058 23.1023 92.2024 23.2557 91.1854 23.2557Z" fill="black"/>
</svg>
